<?xml version="1.0" standalone="no"?>
<!DOCTYPE svg PUBLIC "-//W3C//DTD SVG 20010904//EN"
 "http://www.w3.org/TR/2001/REC-SVG-20010904/DTD/svg10.dtd">
<svg version="1.0" xmlns="http://www.w3.org/2000/svg"
 width="1280.000000pt" height="928.000000pt" viewBox="0 0 1280.000000 928.000000"
 preserveAspectRatio="xMidYMid meet">
<metadata>
Created by potrace 1.15, written by Peter Selinger 2001-2017
</metadata>
<g transform="translate(0.000000,928.000000) scale(0.100000,-0.100000)"
fill="#808487" stroke="none">
<path d="M3930 9270 c-364 -20 -777 -65 -1095 -119 -623 -108 -921 -164 -938
-179 -10 -9 -42 -30 -71 -46 -78 -45 -302 -251 -434 -401 -148 -167 -353 -369
-473 -466 -52 -42 -164 -125 -249 -185 -85 -59 -189 -136 -230 -170 -79 -65
-217 -205 -243 -245 -8 -13 -25 -71 -37 -129 -12 -58 -28 -119 -36 -137 -8
-17 -14 -43 -14 -57 0 -14 -18 -65 -39 -115 -71 -160 -83 -271 -56 -501 23
-199 71 -412 136 -618 51 -158 61 -174 198 -322 l129 -139 100 -203 c87 -175
409 -926 542 -1263 55 -140 610 -1084 735 -1251 148 -197 359 -456 492 -604
167 -187 546 -553 653 -632 277 -203 559 -336 1140 -538 265 -92 563 -210 690
-274 58 -29 242 -122 410 -208 168 -85 408 -198 533 -252 211 -90 244 -101
440 -146 454 -104 584 -98 880 38 263 122 354 151 657 213 296 60 1054 183
1415 229 94 12 319 42 500 66 637 84 1054 132 1429 164 127 11 256 27 287 36
45 13 87 38 181 110 68 52 177 134 243 182 232 168 445 357 623 552 194 213
310 382 353 512 l22 68 -42 412 c-23 227 -41 453 -41 501 0 49 12 258 26 465
14 208 27 456 27 552 2 175 2 175 -30 259 -116 300 -424 744 -664 956 -91 80
-166 178 -389 510 -314 469 -345 504 -700 786 -406 324 -750 575 -1069 779
-90 58 -527 346 -970 641 -892 593 -955 633 -1152 729 -218 106 -394 162 -574
181 -55 6 -379 46 -720 90 -811 102 -1081 131 -1520 159 -224 14 -857 20
-1055 10z"/>
</g>
</svg>
