<svg xmlns="http://www.w3.org/2000/svg" fill = "#E0C9A6" viewBox="0 0 24 24" width="1280.000000pt" height="640.000000pt"><path d="M 14.166016 0 C 13.981445 0 13.813471 0.10107418 13.726562 0.26367188 C 13.639648 0.42626958 13.647949 0.62402345 13.75 0.77734375 L 14.857422 2.4375 L 12.146484 5.1464844 C 11.951172 5.3417969 11.951172 5.6582031 12.146484 5.8535156 L 13.892578 7.5996094 L 13.052734 9.2773438 C 12.976562 9.4301758 12.984375 9.6113282 13.072266 9.7578125 L 15.908203 14.486328 L 14.083984 17.222656 C 13.95166 17.420898 13.978027 17.685059 14.146484 17.853516 L 15.714844 19.421875 L 13.222656 21.083984 C 13.012695 21.223633 12.939941 21.49707 13.052734 21.722656 L 14.052734 23.722656 C 14.137695 23.89209 14.310547 24 14.5 24 L 22 24 C 23.103027 24 24 23.103027 24 22 L 24 5.5 C 24 5.3615112 23.944336 5.2369996 23.853516 5.1464844 L 18.853516 0.14648438 C 18.763 0.055664075 18.638489 0 18.5 0 L 14.166016 0 z M 7.7617188 0.005859375 L 1.6601562 1.0351562 C 1.121582 1.1259766 0.65527345 1.4155273 0.34765625 1.8554688 C 0.05029295 2.2797851 -0.0620117 2.7924805 0.03125 3.2988281 L 3.5566406 22.386719 C 3.730957 23.331543 4.5825196 24 5.5371094 24 C 5.6499024 24 5.7641601 23.989746 5.8789062 23.970703 L 12.308594 22.888672 C 12.481934 22.859375 12.627441 22.741699 12.691406 22.578125 C 12.755859 22.414551 12.730469 22.229004 12.623047 22.089844 L 11.560547 20.710938 L 13.839844 18.613281 C 13.952148 18.509766 14.009766 18.359863 13.998047 18.207031 C 13.986816 18.054687 13.90625 17.915527 13.779297 17.830078 L 11.798828 16.492188 L 13.074219 13.679688 C 13.15625 13.498535 13.123047 13.286133 12.990234 13.138672 L 9.3320312 9.0761719 L 9.8847656 7.2714844 C 9.9492187 7.0610352 9.8696289 6.8339844 9.6875 6.7109375 L 7.7851562 5.4257812 L 9.9199219 2.4804688 C 10.063477 2.2822265 10.043457 2.0083008 9.8710938 1.8339844 L 8.1992188 0.1484375 C 8.084961 0.0336914 7.9233398 -0.019531225 7.7617188 0.005859375 z M 19 1.7070312 L 22.292969 5 L 20 5 C 19.448731 5 19 4.5512695 19 4 L 19 1.7070312 z"></path></svg>